<svg id="Layer_1" data-name="Layer 1" xmlns="http://www.w3.org/2000/svg" viewBox="0 0 25 25"><g id="layer1"><rect id="rect4521" y="2.08" width="25" height="20.83" rx="2.08" fill-opacity="0"/><path id="path4487" d="M0,4.17V20.83a2.09,2.09,0,0,0,2.08,2.09h0V2.08h0A2.09,2.09,0,0,0,0,4.17Z"/><path id="path4489" d="M20.83,2.08V22.92h2.09A2.09,2.09,0,0,0,25,20.83V4.17a2.09,2.09,0,0,0-2.08-2.09Z"/><path id="path4491" d="M4.17,2.08V18.75H8.33V2.08Z"/><path id="path4493" d="M16.67,2.08V18.75h2.08V2.08Z"/><path id="path4497" d="M10.42,2.08V18.75h4.16V2.08Z"/><rect id="rect4513" x="4.17" y="20.83" width="2.08" height="2.08"/><rect id="rect4515" x="8.33" y="20.83" width="2.08" height="2.08"/><rect id="rect4517" x="12.5" y="20.83" width="2.08" height="2.08"/><rect id="rect4519" x="16.67" y="20.83" width="2.08" height="2.08"/></g></svg>