<svg id="Layer_1" data-name="Layer 1" xmlns="http://www.w3.org/2000/svg" viewBox="0 0 25 25"><path d="M1.39,13.89H9.72a1.39,1.39,0,0,0,1.39-1.39V1.39A1.39,1.39,0,0,0,9.72,0H1.39A1.39,1.39,0,0,0,0,1.39V12.5A1.39,1.39,0,0,0,1.39,13.89ZM0,23.61A1.39,1.39,0,0,0,1.39,25H9.72a1.39,1.39,0,0,0,1.39-1.39V18.06a1.39,1.39,0,0,0-1.39-1.39H1.39A1.39,1.39,0,0,0,0,18.06Zm13.89,0A1.39,1.39,0,0,0,15.28,25h8.33A1.39,1.39,0,0,0,25,23.61V13.89a1.39,1.39,0,0,0-1.39-1.39H15.28a1.39,1.39,0,0,0-1.39,1.39ZM15.28,9.72h8.33A1.39,1.39,0,0,0,25,8.33V1.39A1.39,1.39,0,0,0,23.61,0H15.28a1.39,1.39,0,0,0-1.39,1.39V8.33A1.39,1.39,0,0,0,15.28,9.72Z"/></svg>