<svg id="Layer_1" data-name="Layer 1" xmlns="http://www.w3.org/2000/svg" viewBox="0 0 25 25"><path d="M11,18.2a2,2,0,0,0,1.44.61h0a2.07,2.07,0,0,0,1.46-.6l4.55-4.54a2,2,0,0,0,0-2.88,2,2,0,0,0-2.89,0l-1,1V2.05a2,2,0,0,0-4.1,0V11.8l-1-1A2,2,0,0,0,8,10.17a2,2,0,0,0-1.46.62,2,2,0,0,0,0,2.89Z"/><path d="M21.57,14.71a2.05,2.05,0,0,0-2.06,2.05v1.65A2.48,2.48,0,0,1,17,20.89H8a2.48,2.48,0,0,1-2.48-2.48V16.76a2.06,2.06,0,0,0-4.11,0v1.65A6.59,6.59,0,0,0,8,25H17a6.59,6.59,0,0,0,6.59-6.59V16.76A2.05,2.05,0,0,0,21.57,14.71Z"/></svg>